<svg width="60" height="40" viewBox="0 0 60 40" fill="none" xmlns="http://www.w3.org/2000/svg">
<rect width="60" height="40" fill="#555555" fill-opacity="0.3"/>
<g clip-path="url(#clip0_42_1912)">
<g filter="url(#filter0_d_42_1912)">
<path d="M12 32C11.8023 32 11.609 31.9413 11.4446 31.8314C11.2802 31.7215 11.152 31.5654 11.0764 31.3827C11.0007 31.2 10.9809 30.9989 11.0194 30.805C11.058 30.611 11.1532 30.4328 11.293 30.293L19.465 22.121C20.0274 21.5584 20.3434 20.7955 20.3434 20C20.3434 19.2045 20.0274 18.4416 19.465 17.879L11.293 9.707C11.1109 9.5184 11.0101 9.26579 11.0124 9.0036C11.0146 8.7414 11.1198 8.49059 11.3052 8.30518C11.4906 8.11977 11.7414 8.0146 12.0036 8.01232C12.2658 8.01005 12.5184 8.11084 12.707 8.293L20.879 16.465C21.8152 17.4033 22.3409 18.6746 22.3409 20C22.3409 21.3254 21.8152 22.5967 20.879 23.535L12.707 31.707C12.5195 31.8945 12.2652 31.9999 12 32Z" fill="white"/>
</g>
</g>
<defs>
<filter id="filter0_d_42_1912" x="7.00024" y="8.01229" width="19.3406" height="31.9877" filterUnits="userSpaceOnUse" color-interpolation-filters="sRGB">
<feFlood flood-opacity="0" result="BackgroundImageFix"/>
<feColorMatrix in="SourceAlpha" type="matrix" values="0 0 0 0 0 0 0 0 0 0 0 0 0 0 0 0 0 0 127 0" result="hardAlpha"/>
<feOffset dy="4"/>
<feGaussianBlur stdDeviation="2"/>
<feComposite in2="hardAlpha" operator="out"/>
<feColorMatrix type="matrix" values="0 0 0 0 0 0 0 0 0 0 0 0 0 0 0 0 0 0 0.25 0"/>
<feBlend mode="normal" in2="BackgroundImageFix" result="effect1_dropShadow_42_1912"/>
<feBlend mode="normal" in="SourceGraphic" in2="effect1_dropShadow_42_1912" result="shape"/>
</filter>
<clipPath id="clip0_42_1912">
<rect width="24" height="24" fill="white" transform="translate(5 8)"/>
</clipPath>
</defs>
</svg>
