<svg width="1440" height="40" viewBox="0 0 1440 40" fill="none" xmlns="http://www.w3.org/2000/svg">
<rect width="60" height="40" fill="#555555" fill-opacity="0.3"/>
<g clip-path="url(#clip0_42_1908)">
<g filter="url(#filter0_d_42_1908)">
<path d="M47.172 32C46.9068 31.9999 46.6525 31.8945 46.465 31.707L38.293 23.535C37.3557 22.5974 36.8291 21.3258 36.8291 20C36.8291 18.6742 37.3557 17.4026 38.293 16.465L46.465 8.293C46.6536 8.11084 46.9062 8.01005 47.1684 8.01232C47.4306 8.0146 47.6814 8.11977 47.8669 8.30518C48.0523 8.49059 48.1574 8.7414 48.1597 9.0036C48.162 9.26579 48.0612 9.5184 47.879 9.707L39.707 17.879C39.1446 18.4416 38.8287 19.2045 38.8287 20C38.8287 20.7955 39.1446 21.5584 39.707 22.121L47.879 30.293C48.0188 30.4328 48.1141 30.611 48.1526 30.805C48.1912 30.9989 48.1714 31.2 48.0957 31.3827C48.02 31.5654 47.8919 31.7215 47.7275 31.8314C47.5631 31.9413 47.3698 32 47.172 32Z" fill="white"/>
</g>
</g>
<rect x="1380" width="60" height="40" fill="#555555" fill-opacity="0.3"/>
<g clip-path="url(#clip1_42_1908)">
<g filter="url(#filter1_d_42_1908)">
<path d="M1392 32C1391.8 32 1391.61 31.9413 1391.44 31.8314C1391.28 31.7215 1391.15 31.5654 1391.08 31.3827C1391 31.2 1390.98 30.9989 1391.02 30.805C1391.06 30.611 1391.15 30.4328 1391.29 30.293L1399.47 22.121C1400.03 21.5584 1400.34 20.7955 1400.34 20C1400.34 19.2045 1400.03 18.4416 1399.47 17.879L1391.29 9.707C1391.11 9.5184 1391.01 9.26579 1391.01 9.0036C1391.01 8.7414 1391.12 8.49059 1391.31 8.30518C1391.49 8.11977 1391.74 8.0146 1392 8.01232C1392.27 8.01005 1392.52 8.11084 1392.71 8.293L1400.88 16.465C1401.82 17.4033 1402.34 18.6746 1402.34 20C1402.34 21.3254 1401.82 22.5967 1400.88 23.535L1392.71 31.707C1392.52 31.8945 1392.27 31.9999 1392 32Z" fill="white"/>
</g>
</g>
<defs>
<filter id="filter0_d_42_1908" x="32.8291" y="8.01229" width="19.3428" height="31.9877" filterUnits="userSpaceOnUse" color-interpolation-filters="sRGB">
<feFlood flood-opacity="0" result="BackgroundImageFix"/>
<feColorMatrix in="SourceAlpha" type="matrix" values="0 0 0 0 0 0 0 0 0 0 0 0 0 0 0 0 0 0 127 0" result="hardAlpha"/>
<feOffset dy="4"/>
<feGaussianBlur stdDeviation="2"/>
<feComposite in2="hardAlpha" operator="out"/>
<feColorMatrix type="matrix" values="0 0 0 0 0 0 0 0 0 0 0 0 0 0 0 0 0 0 0.25 0"/>
<feBlend mode="normal" in2="BackgroundImageFix" result="effect1_dropShadow_42_1908"/>
<feBlend mode="normal" in="SourceGraphic" in2="effect1_dropShadow_42_1908" result="shape"/>
</filter>
<filter id="filter1_d_42_1908" x="1387" y="8.01229" width="19.3406" height="31.9877" filterUnits="userSpaceOnUse" color-interpolation-filters="sRGB">
<feFlood flood-opacity="0" result="BackgroundImageFix"/>
<feColorMatrix in="SourceAlpha" type="matrix" values="0 0 0 0 0 0 0 0 0 0 0 0 0 0 0 0 0 0 127 0" result="hardAlpha"/>
<feOffset dy="4"/>
<feGaussianBlur stdDeviation="2"/>
<feComposite in2="hardAlpha" operator="out"/>
<feColorMatrix type="matrix" values="0 0 0 0 0 0 0 0 0 0 0 0 0 0 0 0 0 0 0.25 0"/>
<feBlend mode="normal" in2="BackgroundImageFix" result="effect1_dropShadow_42_1908"/>
<feBlend mode="normal" in="SourceGraphic" in2="effect1_dropShadow_42_1908" result="shape"/>
</filter>
<clipPath id="clip0_42_1908">
<rect width="24" height="24" fill="white" transform="translate(30 8)"/>
</clipPath>
<clipPath id="clip1_42_1908">
<rect width="24" height="24" fill="white" transform="translate(1385 8)"/>
</clipPath>
</defs>
</svg>
